{
	"asset":{
		"generator":"Khronos glTF Blender I/O v3.5.30",
		"version":"2.0"
	},
	"scene":0,
	"scenes":[
		{
			"name":"Scene",
			"nodes":[
				0
			]
		}
	],
	"nodes":[
		{
			"mesh":0,
			"name":"texturedMesh.006"
		}
	],
	"animations":[
		{
			"channels":[
				{
					"sampler":0,
					"target":{
						"node":0,
						"path":"translation"
					}
				},
				{
					"sampler":1,
					"target":{
						"node":0,
						"path":"rotation"
					}
				},
				{
					"sampler":2,
					"target":{
						"node":0,
						"path":"scale"
					}
				}
			],
			"name":"texturedMesh.006",
			"samplers":[
				{
					"input":5,
					"interpolation":"LINEAR",
					"output":6
				},
				{
					"input":5,
					"interpolation":"LINEAR",
					"output":7
				},
				{
					"input":5,
					"interpolation":"LINEAR",
					"output":8
				}
			]
		}
	],
	"meshes":[
		{
			"name":"texturedMesh.006",
			"primitives":[
				{
					"attributes":{
						"POSITION":0,
						"TEXCOORD_0":1,
						"TEXCOORD_1":2,
						"NORMAL":3
					},
					"indices":4
				}
			]
		}
	],
	"accessors":[
		{
			"bufferView":0,
			"componentType":5126,
			"count":885,
			"max":[
				0.46028637886047363,
				1.0687166452407837,
				0.09960918873548508
			],
			"min":[
				-0.5821295380592346,
				0,
				-0.2834894359111786
			],
			"type":"VEC3"
		},
		{
			"bufferView":1,
			"componentType":5126,
			"count":885,
			"type":"VEC2"
		},
		{
			"bufferView":2,
			"componentType":5126,
			"count":885,
			"type":"VEC2"
		},
		{
			"bufferView":3,
			"componentType":5126,
			"count":885,
			"type":"VEC3"
		},
		{
			"bufferView":4,
			"componentType":5123,
			"count":1014,
			"type":"SCALAR"
		},
		{
			"bufferView":5,
			"componentType":5126,
			"count":2,
			"max":[
				0.08333333333333333
			],
			"min":[
				0.041666666666666664
			],
			"type":"SCALAR"
		},
		{
			"bufferView":6,
			"componentType":5126,
			"count":2,
			"type":"VEC3"
		},
		{
			"bufferView":7,
			"componentType":5126,
			"count":2,
			"type":"VEC4"
		},
		{
			"bufferView":8,
			"componentType":5126,
			"count":2,
			"type":"VEC3"
		}
	],
	"bufferViews":[
		{
			"buffer":0,
			"byteLength":10620,
			"byteOffset":0,
			"target":34962
		},
		{
			"buffer":0,
			"byteLength":7080,
			"byteOffset":10620,
			"target":34962
		},
		{
			"buffer":0,
			"byteLength":7080,
			"byteOffset":17700,
			"target":34962
		},
		{
			"buffer":0,
			"byteLength":10620,
			"byteOffset":24780,
			"target":34962
		},
		{
			"buffer":0,
			"byteLength":2028,
			"byteOffset":35400,
			"target":34963
		},
		{
			"buffer":0,
			"byteLength":8,
			"byteOffset":37428
		},
		{
			"buffer":0,
			"byteLength":24,
			"byteOffset":37436
		},
		{
			"buffer":0,
			"byteLength":32,
			"byteOffset":37460
		},
		{
			"buffer":0,
			"byteLength":24,
			"byteOffset":37492
		}
	],
	"buffers":[
		{
			"byteLength":37516,
			"uri":"data:application/octet-stream;base64,"
		}
	]
}
