{
	"asset":{
		"generator":"Khronos glTF Blender I/O v3.5.30",
		"version":"2.0"
	},
	"scene":0,
	"scenes":[
		{
			"name":"Scene",
			"nodes":[
				0
			]
		}
	],
	"nodes":[
		{
			"mesh":0,
			"name":"texturedMesh.006"
		}
	],
	"animations":[
		{
			"channels":[
				{
					"sampler":0,
					"target":{
						"node":0,
						"path":"translation"
					}
				},
				{
					"sampler":1,
					"target":{
						"node":0,
						"path":"rotation"
					}
				},
				{
					"sampler":2,
					"target":{
						"node":0,
						"path":"scale"
					}
				}
			],
			"name":"texturedMesh.006",
			"samplers":[
				{
					"input":5,
					"interpolation":"LINEAR",
					"output":6
				},
				{
					"input":5,
					"interpolation":"LINEAR",
					"output":7
				},
				{
					"input":5,
					"interpolation":"LINEAR",
					"output":8
				}
			]
		}
	],
	"meshes":[
		{
			"name":"texturedMesh.006",
			"primitives":[
				{
					"attributes":{
						"POSITION":0,
						"TEXCOORD_0":1,
						"TEXCOORD_1":2,
						"NORMAL":3
					},
					"indices":4
				}
			]
		}
	],
	"accessors":[
		{
			"bufferView":0,
			"componentType":5126,
			"count":56180,
			"max":[
				0.44805318117141724,
				1.051757574081421,
				0.08438102900981903
			],
			"min":[
				-0.5589737892150879,
				0,
				-0.283489465713501
			],
			"type":"VEC3"
		},
		{
			"bufferView":1,
			"componentType":5126,
			"count":56180,
			"type":"VEC2"
		},
		{
			"bufferView":2,
			"componentType":5126,
			"count":56180,
			"type":"VEC2"
		},
		{
			"bufferView":3,
			"componentType":5126,
			"count":56180,
			"type":"VEC3"
		},
		{
			"bufferView":4,
			"componentType":5123,
			"count":87360,
			"type":"SCALAR"
		},
		{
			"bufferView":5,
			"componentType":5126,
			"count":2,
			"max":[
				0.08333333333333333
			],
			"min":[
				0.041666666666666664
			],
			"type":"SCALAR"
		},
		{
			"bufferView":6,
			"componentType":5126,
			"count":2,
			"type":"VEC3"
		},
		{
			"bufferView":7,
			"componentType":5126,
			"count":2,
			"type":"VEC4"
		},
		{
			"bufferView":8,
			"componentType":5126,
			"count":2,
			"type":"VEC3"
		}
	],
	"bufferViews":[
		{
			"buffer":0,
			"byteLength":674160,
			"byteOffset":0,
			"target":34962
		},
		{
			"buffer":0,
			"byteLength":449440,
			"byteOffset":674160,
			"target":34962
		},
		{
			"buffer":0,
			"byteLength":449440,
			"byteOffset":1123600,
			"target":34962
		},
		{
			"buffer":0,
			"byteLength":674160,
			"byteOffset":1573040,
			"target":34962
		},
		{
			"buffer":0,
			"byteLength":174720,
			"byteOffset":2247200,
			"target":34963
		},
		{
			"buffer":0,
			"byteLength":8,
			"byteOffset":2421920
		},
		{
			"buffer":0,
			"byteLength":24,
			"byteOffset":2421928
		},
		{
			"buffer":0,
			"byteLength":32,
			"byteOffset":2421952
		},
		{
			"buffer":0,
			"byteLength":24,
			"byteOffset":2421984
		}
	],
	"buffers":[
		{
			"byteLength":2422008,
			"uri":"data:application/octet-stream;base64,"
		}
	]
}
