{
  "accessors": [
    {
      "bufferView": 0,
      "componentType": 5126,
      "count": 18,
      "type": "VEC2"
    },
    {
      "bufferView": 1,
      "componentType": 5126,
      "count": 18,
      "type": "VEC3"
    },
    {
      "bufferView": 2,
      "componentType": 5126,
      "count": 18,
      "type": "VEC4"
    },
    {
      "bufferView": 3,
      "componentType": 5126,
      "count": 18,
      "type": "VEC3",
      "max": [
        0.01,
        0.01,
        0.0
      ],
      "min": [
        -0.00655767,
        -0.01,
        -0.09230349
      ]
    },
    {
      "bufferView": 4,
      "componentType": 5123,
      "count": 24,
      "type": "SCALAR"
    }
  ],
  "asset": {
    "generator": "glTF Tools for Unity",
    "version": "2.0"
  },
  "bufferViews": [
    {
      "buffer": 0,
      "byteLength": 144
    },
    {
      "buffer": 0,
      "byteOffset": 144,
      "byteLength": 216
    },
    {
      "buffer": 0,
      "byteOffset": 360,
      "byteLength": 288
    },
    {
      "buffer": 0,
      "byteOffset": 648,
      "byteLength": 216
    },
    {
      "buffer": 0,
      "byteOffset": 864,
      "byteLength": 48
    }
  ],
  "buffers": [
    {
      "uri": "Monolith.bin",
      "byteLength": 912
    }
  ],
  "meshes": [
    {
      "primitives": [
        {
          "attributes": {
            "TEXCOORD_0": 0,
            "NORMAL": 1,
            "TANGENT": 2,
            "POSITION": 3
          },
          "indices": 4,
          "material": 0
        }
      ],
      "name": "Monolith"
    }
  ],
  "materials": [
    {
      "pbrMetallicRoughness": {
        "baseColorFactor": [
          0.445306182,
          0.445306182,
          0.445306182,
          1.0
        ],
        "metallicFactor": 0.793361962,
        "roughnessFactor": 0.06999999
      },
      "name": "Material"
    }
  ],
  "nodes": [
    {
      "mesh": 0,
      "rotation": [
        0.7071068,
        0.0,
        0.0,
        0.7071067
      ],
      "scale": [
        100.0,
        100.0,
        100.0
      ],
      "translation": [
        -0.278575838,
        0.0,
        0.0
      ],
      "name": "Monolith"
    }
  ],
  "scene": 0,
  "scenes": [
    {
      "nodes": [
        0
      ]
    }
  ]
}